<svg width="20" height="20" viewBox="0 0 20 20" fill="none" xmlns="http://www.w3.org/2000/svg">
<path d="M4.80373 0.967652C4.86948 0.783081 5.13048 0.783081 5.19623 0.967652L5.40732 1.56028C5.91132 2.97524 7.02478 4.08866 8.43973 4.59268L9.03236 4.80376C9.2169 4.86951 9.2169 5.13051 9.03236 5.19626L8.43973 5.40735C7.02478 5.91139 5.91136 7.02481 5.40732 8.43976L5.19623 9.03239C5.13048 9.21693 4.86948 9.21693 4.80373 9.03239L4.59265 8.43976C4.08863 7.02481 2.97521 5.91135 1.56025 5.40735L0.967621 5.19626C0.78305 5.13051 0.78305 4.86951 0.967621 4.80376L1.56025 4.59268C2.97521 4.08866 4.08863 2.97524 4.59265 1.56028L4.80373 0.967652Z" fill="white"/>
<path d="M18.4489 10.1196C19.1371 9.43139 19.3379 8.39622 18.7676 7.60764C18.4659 7.19047 18.0684 6.70597 17.5563 6.1938C17.0441 5.68164 16.5596 5.28422 16.1424 4.98251C15.3539 4.41214 14.3187 4.61301 13.6305 5.30118L5.07744 13.8543C4.83769 14.094 4.67948 14.4023 4.64969 14.7401C4.5929 15.384 4.53207 16.6168 4.65444 18.3668C4.68173 18.7573 4.99282 19.0683 5.38323 19.0956C7.13332 19.218 8.36607 19.1572 9.01002 19.1004C9.34777 19.0706 9.65607 18.9124 9.89582 18.6726L18.4489 10.1196Z" fill="#8CCBFB"/>
<path d="M9.76282 18.7914C9.75144 18.5508 9.69869 18.3147 9.58936 18.0945C9.32911 17.5704 8.83027 16.7751 7.9024 15.8472C6.75348 14.6983 5.80786 14.2071 5.32848 14.0123C5.2259 13.9706 5.11952 13.9426 5.01107 13.9246C4.80865 14.153 4.67665 14.4344 4.64969 14.7399C4.5929 15.3839 4.53207 16.6166 4.65444 18.3667C4.68173 18.7571 4.99282 19.0682 5.38323 19.0955C7.13332 19.2179 8.36607 19.157 9.01002 19.1002C9.28823 19.0757 9.54644 18.964 9.76282 18.7914Z" fill="white"/>
<path d="M18.4174 10.151C19.1247 9.44373 19.3312 8.37973 18.7415 7.57173C18.4431 7.16277 18.0538 6.69127 17.5563 6.19373C17.0587 5.69614 16.5872 5.30689 16.1783 5.00843C15.3703 4.41881 14.3063 4.62531 13.599 5.3326L5.08768 13.8439C4.84126 14.0904 4.67868 14.407 4.64843 14.7541C4.59222 15.3996 4.53339 16.6206 4.65314 18.348C4.68093 18.7493 5.00068 19.0691 5.40201 19.0969C7.12939 19.2166 8.35039 19.1578 8.99581 19.1016C9.34297 19.0713 9.65964 18.9087 9.90601 18.6623L18.4174 10.151Z" stroke="#3E3ED8" stroke-width="1.5" stroke-linecap="round" stroke-linejoin="round"/>
<path d="M16.7453 11.4176C16.7453 11.4176 16.4925 10.2913 14.9755 8.77437C13.4586 7.25741 12.3323 7.00458 12.3323 7.00458" stroke="#3E3ED8" stroke-width="1.5" stroke-linecap="round" stroke-linejoin="round"/>
<path d="M9.44797 18.7148C9.44797 18.7148 9.19514 17.5885 7.67818 16.0716C6.16122 14.5546 5.03497 14.3018 5.03497 14.3018" stroke="#3E3ED8" stroke-width="1.5" stroke-linecap="round" stroke-linejoin="round"/>
<path d="M4.80373 0.967652C4.86948 0.783081 5.13048 0.783081 5.19623 0.967652L5.40732 1.56028C5.91132 2.97524 7.02478 4.08866 8.43973 4.59268L9.03236 4.80376C9.2169 4.86951 9.2169 5.13051 9.03236 5.19626L8.43973 5.40735C7.02478 5.91139 5.91132 7.02481 5.40732 8.43976L5.19623 9.03239C5.13048 9.21693 4.86948 9.21693 4.80373 9.03239L4.59265 8.43976C4.08863 7.02481 2.97521 5.91135 1.56025 5.40735L0.967621 5.19626C0.78305 5.13051 0.78305 4.86951 0.967621 4.80376L1.56025 4.59268C2.97521 4.08866 4.08863 2.97524 4.59265 1.56028L4.80373 0.967652Z" stroke="#3E3ED8" stroke-width="1.5"/>
</svg>
