<svg width="86" height="48" viewBox="0 0 86 48" fill="none" xmlns="http://www.w3.org/2000/svg">
<g clip-path="url(#clip0_19_67)">
<path d="M46.4754 8.23932C46.7494 8.48254 47.0508 9.18487 47.0982 9.57203C47.427 12.2722 45.4415 19.2807 49.6294 19.8812C54.2134 20.5364 54.1037 14.8507 54.8312 11.8925C57.2303 2.14165 71.0646 3.92107 70.808 13.8506C70.7332 16.7493 67.5518 22.6707 71.5554 24.0804C75.975 25.6364 77.0736 19.1566 78.3741 16.3696C78.9695 15.0939 79.7293 14.2303 81.3163 14.5479C85.2551 15.3396 80.7309 22.0875 80.3771 24.3137C79.976 26.8401 81.4733 27.5499 81.4608 29.1059C81.4509 30.5627 80.113 31.3817 78.7428 31.2477C76.4583 31.0243 76.6825 27.7832 75.9127 27.5424C75.4343 27.3935 74.0442 28.4607 73.095 28.5922C68.6928 29.2002 65.1079 26.0112 64.8263 21.6731C64.6345 18.7148 66.2937 15.5729 66.1293 13.1408C65.93 10.1974 62.1831 9.00867 60.2697 11.1728C59.1212 12.4732 58.8248 16.923 58.1172 18.8861C56.4356 23.5592 50.9024 26.6813 46.4704 23.4029C45.8077 22.9139 44.9831 21.5539 44.3827 21.5564C43.852 21.5564 42.4046 23.3284 41.5326 23.7577C38.3338 25.3287 34.1932 23.8322 32.2624 21.0005C30.2893 18.1068 30.6381 15.2304 30.0776 12.019C29.6117 9.35363 27.2649 7.80502 24.7312 9.2494C22.1976 10.6938 24.081 15.1386 24.0835 17.392C24.0909 23.8521 15.466 25.7704 12.6932 19.844C11.3903 17.057 11.6319 12.2871 7.21482 12.8306C6.21331 12.9547 5.17693 14.0144 4.87548 14.9624C3.96864 17.799 7.37426 22.3655 7.32942 25.758C7.29952 28.0239 5.70758 32.9328 2.57849 31.0318C0.632781 29.848 1.92079 28.3043 2.32687 26.9319C3.25613 23.7751 0.291472 20.4347 0.034867 17.1985C-0.717508 7.72808 11.2682 4.59859 15.2892 12.7909C16.1163 14.4785 16.3654 16.3671 17.053 18.1018C17.8701 19.2807 19.1532 18.8712 19.4496 17.5558C19.3126 16.1338 18.8119 14.7142 18.7097 13.2922C17.9 2.15654 32.8479 0.57566 34.7214 11.2968C35.1947 14.0119 34.7214 19.7249 38.7822 19.7274C43.5356 19.7274 41.996 12.4161 42.4369 9.5894C42.7234 7.73553 45.1051 7.02823 46.4778 8.23932H46.4754Z" fill="#3E3ED8"/>
<path d="M49.7041 42.026C46.7992 43.2371 43.3388 42.6762 41.9113 39.6534C39.7339 35.0423 43.6253 29.6842 48.7698 31.337C49.7365 31.6473 50.1575 32.3645 51.012 32.7293L51.7494 28.9074C52.1406 28.6344 54.4226 28.9868 54.6643 29.3814L52.8332 42.6315C52.3947 43.5746 49.5945 43.3363 49.7041 42.0284V42.026ZM47.2402 33.8833C43.8844 34.2109 43.5929 39.3829 46.8565 39.9338C51.7146 40.7553 51.7071 33.4465 47.2402 33.8833Z" fill="#3E3ED8"/>
<path d="M73.1722 45.4931C71.4657 47.0988 68.7651 47.4115 66.6026 46.6818C60.038 44.4706 61.6898 34.3326 69.4079 34.963C74.6272 35.3898 77.0213 41.8722 73.1722 45.4931ZM68.1448 37.9783C65.2847 38.4896 64.8513 43.1726 68.0426 43.9445C72.7113 45.0712 73.0402 37.1023 68.1448 37.9783Z" fill="#3E3ED8"/>
<path d="M38.0821 31.1013C38.4708 31.5481 38.9591 37.6854 38.8818 38.5913C38.4459 43.5895 30.2046 44.4333 28.812 39.3085C28.5703 38.4151 27.7955 32.6127 28.1244 32.1561C28.7173 31.9054 30.4811 31.5257 30.942 31.9774C31.5175 32.5408 31.4876 37.606 32.0581 38.8643C32.8354 40.5792 35.3716 40.2863 35.6905 38.5764C36.0093 36.8665 34.6516 32.6103 35.2321 31.424C35.4488 30.9797 37.7284 30.6943 38.0821 31.0989V31.1013Z" fill="#3E3ED8"/>
<path d="M11.9508 35.0051C12.9074 34.9555 15.7674 35.5486 15.3265 36.8838C15.2866 37.0054 13.9313 37.8989 13.752 37.9336C12.9074 38.0949 12.6583 37.5886 12.0778 37.544C11.2781 37.4844 10.3439 38.1917 10.7624 39.0479C11.4674 40.4923 15.8472 38.3059 17.1825 41.217C18.9962 45.1729 14.2054 48.0641 10.6378 46.8034C9.16547 46.2822 8.25863 45.3963 9.94525 44.3688C11.6344 43.3389 11.44 44.3514 12.6807 44.5946C14.3972 44.9297 15.8372 42.2271 12.8202 42.1973C12.2373 42.1923 11.7739 42.4132 11.171 42.3834C5.94919 42.1427 6.95568 35.2583 11.9508 35.0051Z" fill="#3E3ED8"/>
<path d="M22.6285 35.5188C23.0271 36.581 23.351 40.2193 24.1333 40.805C24.9928 41.4502 26.0242 40.6709 26.5548 40.996C26.7442 41.1127 27.23 42.4553 27.2599 42.7209C27.3695 43.6813 26.2883 43.8128 25.5234 43.8823C20.1297 44.3588 20.7002 40.2838 19.5493 36.442L19.35 36.2807C17.8303 36.8987 17.6235 35.3277 17.8029 34.1464C17.9474 33.7146 18.5328 33.8511 18.899 33.8411C19.061 33.0147 18.1342 31.6175 18.6923 30.94C18.8617 30.734 20.6579 30.3171 20.9593 30.389C22.1128 30.667 21.6768 32.5531 22.058 32.8336C22.7282 33.1338 23.6799 32.3695 24.2255 32.908C24.487 33.3944 24.8308 34.7519 24.4123 35.1465L22.6335 35.5163L22.6285 35.5188Z" fill="#3E3ED8"/>
<path d="M56.0818 43.6739C55.6259 42.9641 57.5392 35.7645 57.6538 34.412C58.0749 33.7047 60.9075 34.2283 60.8178 35.1664L59.0315 43.9643C58.5856 44.6269 56.7893 43.7459 56.0818 43.6739Z" fill="#3E3ED8"/>
<path d="M44.43 0.0421911C48.0922 -0.541022 48.867 4.95359 45.2995 5.37548C41.7319 5.79738 41.0941 0.573287 44.43 0.0421911Z" fill="#3E3ED8"/>
<path d="M82.9032 7.29135C86.3462 6.79748 87.3103 12.106 83.7752 12.6346C79.9485 13.2054 79.5424 7.77529 82.9032 7.29135Z" fill="#3E3ED8"/>
<path d="M59.5572 29.24C62.198 28.7734 62.5418 32.0866 60.7356 32.645C58.1322 33.4516 57.3349 29.6321 59.5572 29.24Z" fill="#3E3ED8"/>
</g>
<defs>
<clipPath id="clip0_19_67">
<rect width="86" height="47.1037" fill="white"/>
</clipPath>
</defs>
</svg>
