<svg width="20" height="20" viewBox="0 0 20 20" fill="none" xmlns="http://www.w3.org/2000/svg">
<path d="M14.3871 10.551C14.4528 10.3664 14.7138 10.3664 14.7796 10.551L14.9907 11.1436C15.4947 12.5586 16.6081 13.672 18.0231 14.176L18.6157 14.3871C18.8003 14.4528 18.8003 14.7138 18.6157 14.7796L18.0231 14.9907C16.6081 15.4947 15.4947 16.6081 14.9907 18.0231L14.7796 18.6157C14.7138 18.8003 14.4528 18.8003 14.3871 18.6157L14.176 18.0231C13.672 16.6081 12.5586 15.4947 11.1436 14.9907L10.551 14.7796C10.3664 14.7138 10.3664 14.4528 10.551 14.3871L11.1436 14.176C12.5586 13.672 13.672 12.5586 14.176 11.1436L14.3871 10.551Z" fill="white"/>
<path fill-rule="evenodd" clip-rule="evenodd" d="M2.71091 15.6408C1.7983 15.5667 1.09998 14.8684 1.02583 13.9558C0.932156 12.8028 0.833344 10.9633 0.833344 8.33334C0.833344 5.70334 0.932156 3.86385 1.02583 2.71091C1.09998 1.7983 1.7983 1.09998 2.71091 1.02583C3.86385 0.932156 5.70334 0.833344 8.33334 0.833344C10.9633 0.833344 12.8028 0.932156 13.9558 1.02583C14.8684 1.09998 15.5667 1.7983 15.6408 2.71091C15.7345 3.86385 15.8333 5.70334 15.8333 8.33334C15.8333 8.39805 15.8333 8.4623 15.8332 8.52605C14.7772 7.84163 13.2482 8.11697 12.5727 9.35205L11.8732 10.631C11.5865 11.1553 11.1553 11.5865 10.631 11.8732L9.35205 12.5727C8.11697 13.2482 7.84163 14.7771 8.52605 15.8332C8.4623 15.8333 8.39805 15.8333 8.33334 15.8333C5.70334 15.8333 3.86385 15.7346 2.71091 15.6408Z" fill="#8CCBFB"/>
<path d="M12.9167 4.58334C12.9167 5.27372 12.3571 5.83334 11.6667 5.83334C10.9763 5.83334 10.4167 5.27372 10.4167 4.58334C10.4167 3.89299 10.9763 3.33334 11.6667 3.33334C12.3571 3.33334 12.9167 3.89299 12.9167 4.58334Z" fill="white"/>
<path d="M12.9167 4.58334C12.9167 5.27372 12.3571 5.83334 11.6667 5.83334C10.9763 5.83334 10.4167 5.27372 10.4167 4.58334C10.4167 3.89299 10.9763 3.33334 11.6667 3.33334C12.3571 3.33334 12.9167 3.89299 12.9167 4.58334Z" stroke="#3E3ED8" stroke-width="1.5" stroke-linecap="round" stroke-linejoin="round"/>
<path fill-rule="evenodd" clip-rule="evenodd" d="M1.02585 13.9558C1.09999 14.8684 1.79832 15.5667 2.71092 15.6408C3.86387 15.7345 5.70337 15.8333 8.33337 15.8333C8.39804 15.8333 8.46229 15.8333 8.52604 15.8332C7.84162 14.7771 8.11696 13.2482 9.35204 12.5727L10.631 11.8732C11.1553 11.5865 11.5865 11.1553 11.8732 10.631L12.0231 10.357C9.91525 8.2607 8.59158 7.09437 7.82183 6.46604C7.26454 6.0112 6.53383 5.94333 5.932 6.33724C5.01225 6.9392 3.41116 8.16595 0.972236 10.6049C0.935461 10.6417 0.898957 10.6782 0.862732 10.7147C0.898999 12.119 0.963561 13.1891 1.02585 13.9558Z" fill="white"/>
<path d="M15.8325 7.91668C15.8228 5.50784 15.7295 3.80197 15.6408 2.71091C15.5667 1.7983 14.8684 1.09998 13.9558 1.02583C12.8028 0.932156 10.9633 0.833344 8.33334 0.833344C5.70334 0.833344 3.86385 0.932156 2.71091 1.02583C1.7983 1.09998 1.09998 1.7983 1.02583 2.71091C0.932156 3.86385 0.833344 5.70334 0.833344 8.33334C0.833344 10.9633 0.932156 12.8028 1.02583 13.9558C1.09998 14.8684 1.7983 15.5667 2.71091 15.6408C3.80197 15.7295 5.50784 15.8228 7.91668 15.8325" stroke="#3E3ED8" stroke-width="1.5" stroke-linecap="round" stroke-linejoin="round"/>
<path d="M0.862732 10.7147C0.898957 10.6782 0.935461 10.6417 0.972236 10.6049C3.41116 8.16595 5.01225 6.9392 5.932 6.33724C6.53383 5.94333 7.26454 6.0112 7.82183 6.46604C8.54675 7.05779 9.76287 8.12662 11.6626 9.99999" stroke="#3E3ED8" stroke-width="1.5" stroke-linecap="round" stroke-linejoin="round"/>
<path d="M14.3871 10.551C14.4528 10.3664 14.7138 10.3664 14.7796 10.551L14.9907 11.1436C15.4947 12.5586 16.6081 13.672 18.0231 14.176L18.6157 14.3871C18.8003 14.4528 18.8003 14.7138 18.6157 14.7796L18.0231 14.9907C16.6081 15.4947 15.4947 16.6081 14.9907 18.0231L14.7796 18.6157C14.7138 18.8003 14.4528 18.8003 14.3871 18.6157L14.176 18.0231C13.672 16.6081 12.5586 15.4947 11.1436 14.9907L10.551 14.7796C10.3664 14.7138 10.3664 14.4528 10.551 14.3871L11.1436 14.176C12.5586 13.672 13.672 12.5586 14.176 11.1436L14.3871 10.551Z" stroke="#3E3ED8" stroke-width="1.5"/>
</svg>
