<svg width="230" height="189" viewBox="0 0 230 189" fill="none" xmlns="http://www.w3.org/2000/svg">
<g filter="url(#filter0_f_1_356)">
<path d="M60.4399 47.0317C59.5966 48.6371 60.9584 50.5111 62.7449 50.205L71.3123 48.7371C72.0213 48.6152 72.7459 48.8495 73.2488 49.3649L79.3143 55.5897C80.5793 56.8859 82.7843 56.1706 83.0436 54.3778L84.2929 45.7761C84.396 45.064 84.8426 44.4487 85.4892 44.1301L93.282 40.2821C94.9061 39.4794 94.9061 37.1619 93.282 36.3592L85.4892 32.5112C84.8426 32.1927 84.396 31.5774 84.2929 30.8652L83.0436 22.2635C82.7843 20.4707 80.5793 19.7555 79.3143 21.0517L73.2488 27.2765C72.7459 27.7919 72.0213 28.0261 71.3123 27.9043L62.7449 26.4363C60.9584 26.1302 59.5966 28.0042 60.4399 29.6096L64.4846 37.3025C64.8188 37.9396 64.8188 38.7017 64.4846 39.3389L60.4399 47.0317Z" fill="#FEA1FA"/>
<path d="M219.6 10.7196C204.358 25.9616 179.643 25.9616 164.398 10.7196C179.64 25.9616 179.64 50.6767 164.398 65.9218C179.64 50.6798 204.355 50.6798 219.6 65.9218C204.358 50.6798 204.358 25.9647 219.6 10.7196Z" fill="white"/>
<path d="M139.774 129.585C139.774 143.184 128.748 154.21 115.149 154.21C128.748 154.21 139.774 165.235 139.774 178.834C139.774 165.235 150.799 154.21 164.398 154.21C150.799 154.21 139.774 143.184 139.774 129.585Z" fill="#9955C9"/>
<path d="M10 140.325C15.9312 134.394 25.548 134.394 31.4793 140.325C25.548 134.394 25.548 124.777 31.4793 118.846C25.548 124.777 15.9312 124.777 10 118.846C15.9312 124.777 15.9312 134.394 10 140.325Z" fill="#FFDD94"/>
</g>
<defs>
<filter id="filter0_f_1_356" x="0" y="0.719604" width="229.6" height="188.115" filterUnits="userSpaceOnUse" color-interpolation-filters="sRGB">
<feFlood flood-opacity="0" result="BackgroundImageFix"/>
<feBlend mode="normal" in="SourceGraphic" in2="BackgroundImageFix" result="shape"/>
<feGaussianBlur stdDeviation="5" result="effect1_foregroundBlur_1_356"/>
</filter>
</defs>
</svg>
